<svg width="184" height="82" viewBox="0 0 184 82" fill="none" xmlns="http://www.w3.org/2000/svg">
<path d="M81.5644 73V60.4H85.6324C86.6164 60.4 87.4204 60.562 88.0444 60.886C88.6684 61.21 89.1304 61.654 89.4304 62.218C89.7304 62.782 89.8804 63.406 89.8804 64.09C89.8804 64.882 89.6644 65.596 89.2324 66.232C88.8124 66.868 88.1524 67.318 87.2524 67.582L90.0064 73H88.2244L85.6684 67.798H85.5604H83.0764V73H81.5644ZM83.0764 66.61H85.5244C86.4964 66.61 87.2044 66.376 87.6484 65.908C88.0924 65.44 88.3144 64.84 88.3144 64.108C88.3144 63.364 88.0924 62.776 87.6484 62.344C87.2164 61.9 86.5024 61.678 85.5064 61.678H83.0764V66.61ZM95.6134 73.216C94.7614 73.216 94.0054 73.024 93.3454 72.64C92.6854 72.244 92.1634 71.698 91.7794 71.002C91.4074 70.306 91.2214 69.484 91.2214 68.536C91.2214 67.6 91.4074 66.784 91.7794 66.088C92.1514 65.38 92.6674 64.834 93.3274 64.45C93.9994 64.054 94.7734 63.856 95.6494 63.856C96.5134 63.856 97.2574 64.054 97.8814 64.45C98.5174 64.834 99.0034 65.344 99.3394 65.98C99.6754 66.616 99.8434 67.3 99.8434 68.032C99.8434 68.164 99.8374 68.296 99.8254 68.428C99.8254 68.56 99.8254 68.71 99.8254 68.878H92.7154C92.7514 69.562 92.9074 70.132 93.1834 70.588C93.4714 71.032 93.8254 71.368 94.2454 71.596C94.6774 71.824 95.1334 71.938 95.6134 71.938C96.2374 71.938 96.7594 71.794 97.1794 71.506C97.5994 71.218 97.9054 70.828 98.0974 70.336H99.5914C99.3514 71.164 98.8894 71.854 98.2054 72.406C97.5334 72.946 96.6694 73.216 95.6134 73.216ZM95.6134 65.134C94.8934 65.134 94.2514 65.356 93.6874 65.8C93.1354 66.232 92.8174 66.868 92.7334 67.708H98.3494C98.3134 66.904 98.0374 66.274 97.5214 65.818C97.0054 65.362 96.3694 65.134 95.6134 65.134ZM104.07 73L100.686 64.072H102.27L104.952 71.542L107.652 64.072H109.2L105.816 73H104.07ZM111.801 62.092C111.501 62.092 111.249 61.996 111.045 61.804C110.853 61.6 110.757 61.348 110.757 61.048C110.757 60.76 110.853 60.52 111.045 60.328C111.249 60.136 111.501 60.04 111.801 60.04C112.089 60.04 112.335 60.136 112.539 60.328C112.743 60.52 112.845 60.76 112.845 61.048C112.845 61.348 112.743 61.6 112.539 61.804C112.335 61.996 112.089 62.092 111.801 62.092ZM111.045 73V64.072H112.557V73H111.045ZM119.203 73.216C118.351 73.216 117.595 73.024 116.935 72.64C116.275 72.244 115.753 71.698 115.369 71.002C114.997 70.306 114.811 69.484 114.811 68.536C114.811 67.6 114.997 66.784 115.369 66.088C115.741 65.38 116.257 64.834 116.917 64.45C117.589 64.054 118.363 63.856 119.239 63.856C120.103 63.856 120.847 64.054 121.471 64.45C122.107 64.834 122.593 65.344 122.929 65.98C123.265 66.616 123.433 67.3 123.433 68.032C123.433 68.164 123.427 68.296 123.415 68.428C123.415 68.56 123.415 68.71 123.415 68.878H116.305C116.341 69.562 116.497 70.132 116.773 70.588C117.061 71.032 117.415 71.368 117.835 71.596C118.267 71.824 118.723 71.938 119.203 71.938C119.827 71.938 120.349 71.794 120.769 71.506C121.189 71.218 121.495 70.828 121.687 70.336H123.181C122.941 71.164 122.479 71.854 121.795 72.406C121.123 72.946 120.259 73.216 119.203 73.216ZM119.203 65.134C118.483 65.134 117.841 65.356 117.277 65.8C116.725 66.232 116.407 66.868 116.323 67.708H121.939C121.903 66.904 121.627 66.274 121.111 65.818C120.595 65.362 119.959 65.134 119.203 65.134ZM126.886 73L124.276 64.072H125.788L127.678 71.074L129.766 64.072H131.476L133.582 71.074L135.454 64.072H136.984L134.374 73H132.826L130.63 65.638L128.434 73H126.886ZM142.076 73.216C141.008 73.216 140.12 72.946 139.412 72.406C138.704 71.866 138.29 71.134 138.17 70.21H139.718C139.814 70.678 140.06 71.086 140.456 71.434C140.864 71.77 141.41 71.938 142.094 71.938C142.73 71.938 143.198 71.806 143.498 71.542C143.798 71.266 143.948 70.942 143.948 70.57C143.948 70.03 143.75 69.67 143.354 69.49C142.97 69.31 142.424 69.148 141.716 69.004C141.236 68.908 140.756 68.77 140.276 68.59C139.796 68.41 139.394 68.158 139.07 67.834C138.746 67.498 138.584 67.06 138.584 66.52C138.584 65.74 138.872 65.104 139.448 64.612C140.036 64.108 140.828 63.856 141.824 63.856C142.772 63.856 143.546 64.096 144.146 64.576C144.758 65.044 145.112 65.716 145.208 66.592H143.714C143.654 66.136 143.456 65.782 143.12 65.53C142.796 65.266 142.358 65.134 141.806 65.134C141.266 65.134 140.846 65.248 140.546 65.476C140.258 65.704 140.114 66.004 140.114 66.376C140.114 66.736 140.3 67.018 140.672 67.222C141.056 67.426 141.572 67.6 142.22 67.744C142.772 67.864 143.294 68.014 143.786 68.194C144.29 68.362 144.698 68.62 145.01 68.968C145.334 69.304 145.496 69.796 145.496 70.444C145.508 71.248 145.202 71.914 144.578 72.442C143.966 72.958 143.132 73.216 142.076 73.216ZM150.878 75.61C150.23 74.986 149.63 74.242 149.078 73.378C148.526 72.526 148.082 71.566 147.746 70.498C147.422 69.418 147.26 68.254 147.26 67.006C147.26 65.758 147.422 64.6 147.746 63.532C148.082 62.452 148.526 61.486 149.078 60.634C149.63 59.77 150.23 59.026 150.878 58.402H152.426V58.546C151.322 59.626 150.434 60.892 149.762 62.344C149.102 63.784 148.772 65.338 148.772 67.006C148.772 68.674 149.108 70.234 149.78 71.686C150.452 73.126 151.334 74.386 152.426 75.466V75.61H150.878ZM159.446 73V70.3H153.056V69.13L159.176 60.4H160.94V68.968H162.812V70.3H160.94V73H159.446ZM154.73 68.968H159.518V62.074L154.73 68.968ZM165.071 73.09C164.771 73.09 164.519 72.994 164.315 72.802C164.123 72.598 164.027 72.352 164.027 72.064C164.027 71.776 164.123 71.536 164.315 71.344C164.519 71.14 164.771 71.038 165.071 71.038C165.359 71.038 165.599 71.14 165.791 71.344C165.995 71.536 166.097 71.776 166.097 72.064C166.097 72.352 165.995 72.598 165.791 72.802C165.599 72.994 165.359 73.09 165.071 73.09ZM172.312 73.216C171.484 73.216 170.74 73.066 170.08 72.766C169.42 72.454 168.898 72.028 168.514 71.488C168.142 70.936 167.956 70.3 167.956 69.58C167.956 68.812 168.178 68.122 168.622 67.51C169.078 66.898 169.678 66.49 170.422 66.286C169.738 66.058 169.21 65.692 168.838 65.188C168.466 64.684 168.28 64.132 168.28 63.532C168.28 62.92 168.442 62.362 168.766 61.858C169.09 61.342 169.552 60.934 170.152 60.634C170.752 60.334 171.472 60.184 172.312 60.184C173.152 60.184 173.872 60.334 174.472 60.634C175.072 60.934 175.534 61.342 175.858 61.858C176.182 62.362 176.344 62.92 176.344 63.532C176.344 64.12 176.158 64.672 175.786 65.188C175.414 65.692 174.886 66.058 174.202 66.286C174.946 66.49 175.54 66.898 175.984 67.51C176.44 68.122 176.668 68.812 176.668 69.58C176.668 70.3 176.476 70.936 176.092 71.488C175.72 72.028 175.204 72.454 174.544 72.766C173.884 73.066 173.14 73.216 172.312 73.216ZM172.312 65.746C173.08 65.746 173.686 65.554 174.13 65.17C174.586 64.774 174.814 64.258 174.814 63.622C174.814 62.914 174.592 62.38 174.148 62.02C173.704 61.66 173.092 61.48 172.312 61.48C171.532 61.48 170.92 61.66 170.476 62.02C170.044 62.38 169.828 62.914 169.828 63.622C169.828 64.258 170.05 64.774 170.494 65.17C170.938 65.554 171.544 65.746 172.312 65.746ZM172.312 71.884C173.26 71.884 173.968 71.668 174.436 71.236C174.916 70.792 175.156 70.21 175.156 69.49C175.156 68.674 174.898 68.056 174.382 67.636C173.866 67.216 173.176 67.006 172.312 67.006C171.448 67.006 170.758 67.216 170.242 67.636C169.726 68.056 169.468 68.674 169.468 69.49C169.468 70.21 169.702 70.792 170.17 71.236C170.65 71.668 171.364 71.884 172.312 71.884ZM177.754 75.61V75.466C178.846 74.386 179.728 73.126 180.4 71.686C181.084 70.234 181.426 68.674 181.426 67.006C181.426 65.338 181.09 63.784 180.418 62.344C179.746 60.892 178.864 59.626 177.772 58.546V58.402H179.302C179.962 59.026 180.562 59.77 181.102 60.634C181.654 61.486 182.092 62.452 182.416 63.532C182.752 64.6 182.92 65.758 182.92 67.006C182.92 68.254 182.752 69.418 182.416 70.498C182.092 71.566 181.654 72.526 181.102 73.378C180.562 74.242 179.962 74.986 179.302 75.61H177.754Z" fill="black"/>
<path d="M90.9146 40V37.168C93.1866 35.376 95.3306 33.568 97.3466 31.744C99.3946 29.888 101.203 28.064 102.771 26.272C104.371 24.48 105.619 22.72 106.515 20.992C107.443 19.264 107.907 17.6 107.907 16C107.907 14.816 107.699 13.712 107.283 12.688C106.899 11.664 106.259 10.848 105.363 10.24C104.467 9.6 103.251 9.28 101.715 9.28C100.243 9.28 99.0106 9.616 98.0186 10.288C97.0266 10.928 96.2746 11.792 95.7626 12.88C95.2826 13.968 95.0426 15.136 95.0426 16.384H91.1546C91.1546 14.176 91.6186 12.288 92.5466 10.72C93.4746 9.12 94.7386 7.904 96.3386 7.072C97.9386 6.24 99.7466 5.824 101.763 5.824C104.739 5.824 107.171 6.672 109.059 8.368C110.979 10.032 111.939 12.528 111.939 15.856C111.939 17.84 111.443 19.808 110.451 21.76C109.459 23.68 108.195 25.552 106.659 27.376C105.123 29.168 103.475 30.848 101.715 32.416C99.9866 33.984 98.3706 35.392 96.8666 36.64H113.091V40H90.9146ZM131.547 40.576C128.571 40.576 125.995 39.856 123.819 38.416C121.675 36.944 120.027 34.912 118.875 32.32C117.723 29.696 117.147 26.656 117.147 23.2C117.147 19.744 117.723 16.72 118.875 14.128C120.027 11.504 121.675 9.472 123.819 8.032C125.995 6.56 128.571 5.824 131.547 5.824C134.523 5.824 137.083 6.56 139.227 8.032C141.371 9.472 143.019 11.504 144.171 14.128C145.323 16.72 145.899 19.744 145.899 23.2C145.899 26.656 145.323 29.696 144.171 32.32C143.019 34.912 141.371 36.944 139.227 38.416C137.083 39.856 134.523 40.576 131.547 40.576ZM131.547 37.024C133.499 37.024 135.243 36.48 136.779 35.392C138.347 34.272 139.563 32.688 140.427 30.64C141.323 28.56 141.771 26.08 141.771 23.2C141.771 20.32 141.323 17.856 140.427 15.808C139.563 13.76 138.347 12.192 136.779 11.104C135.243 9.984 133.499 9.424 131.547 9.424C129.563 9.424 127.803 9.984 126.267 11.104C124.731 12.192 123.515 13.76 122.619 15.808C121.723 17.856 121.275 20.32 121.275 23.2C121.275 26.08 121.723 28.56 122.619 30.64C123.515 32.688 124.731 34.272 126.267 35.392C127.803 36.48 129.563 37.024 131.547 37.024ZM151.724 40V6.4H155.756V21.616L169.772 6.4H174.86L162.38 19.792L175.052 40H170.156L159.5 22.912L155.756 26.896V40H151.724Z" fill="black"/>
<circle cx="28" cy="41" r="28" fill="#F3FBF8"/>
<g clip-path="url(#clip0_32_177)">
<path d="M43.9542 37.3286C43.8439 36.9891 43.5506 36.7418 43.1974 36.6905L33.2773 35.2489L28.8408 26.2597C28.6829 25.9397 28.357 25.7372 28.0001 25.7372C27.6433 25.7372 27.3174 25.9397 27.1595 26.2597L22.7227 35.2489L12.8028 36.6905C12.4497 36.7418 12.1562 36.9891 12.0461 37.3285C11.9357 37.668 12.0277 38.0405 12.2832 38.2895L19.4612 45.2867L17.767 55.1668C17.7067 55.5186 17.8513 55.874 18.14 56.0838C18.4287 56.2935 18.8113 56.3213 19.1273 56.1551L28.0001 51.4903L36.8726 56.1551C37.0098 56.2272 37.1596 56.2628 37.3088 56.2628C37.5032 56.2628 37.6967 56.2024 37.8599 56.0838C38.1486 55.874 38.2932 55.5185 38.2329 55.1668L36.5382 45.2867L43.7169 38.2895C43.9725 38.0405 44.0645 37.6679 43.9542 37.3286Z" fill="#FED42D"/>
<path d="M43.9542 37.3286C43.8439 36.9891 43.5506 36.7418 43.1974 36.6905L33.2773 35.2489L28.8408 26.2597C28.6829 25.9397 28.357 25.7372 28.0002 25.7372V51.4903L36.8727 56.1551C37.0099 56.2273 37.1596 56.2628 37.3089 56.2628C37.5033 56.2628 37.6968 56.2025 37.86 56.0839C38.1487 55.8741 38.2933 55.5186 38.233 55.1669L36.5382 45.2867L43.7169 38.2895C43.9725 38.0405 44.0645 37.6679 43.9542 37.3286Z" fill="#FCBF29"/>
</g>
<defs>
<clipPath id="clip0_32_177">
<rect width="32" height="32" fill="white" transform="translate(12 25)"/>
</clipPath>
</defs>
</svg>
