<svg width="175" height="82" viewBox="0 0 175 82" fill="none" xmlns="http://www.w3.org/2000/svg">
<path d="M105.708 73V60.4H107.22V73H105.708ZM113.33 73C112.514 73 111.872 72.802 111.404 72.406C110.936 72.01 110.702 71.296 110.702 70.264V65.35H109.154V64.072H110.702L110.9 61.93H112.214V64.072H114.842V65.35H112.214V70.264C112.214 70.828 112.328 71.212 112.556 71.416C112.784 71.608 113.186 71.704 113.762 71.704H114.698V73H113.33ZM120.53 73.216C119.678 73.216 118.922 73.024 118.262 72.64C117.602 72.244 117.08 71.698 116.696 71.002C116.324 70.306 116.138 69.484 116.138 68.536C116.138 67.6 116.324 66.784 116.696 66.088C117.068 65.38 117.584 64.834 118.244 64.45C118.916 64.054 119.69 63.856 120.566 63.856C121.43 63.856 122.174 64.054 122.798 64.45C123.434 64.834 123.92 65.344 124.256 65.98C124.592 66.616 124.76 67.3 124.76 68.032C124.76 68.164 124.754 68.296 124.742 68.428C124.742 68.56 124.742 68.71 124.742 68.878H117.632C117.668 69.562 117.824 70.132 118.1 70.588C118.388 71.032 118.742 71.368 119.162 71.596C119.594 71.824 120.05 71.938 120.53 71.938C121.154 71.938 121.676 71.794 122.096 71.506C122.516 71.218 122.822 70.828 123.014 70.336H124.508C124.268 71.164 123.806 71.854 123.122 72.406C122.45 72.946 121.586 73.216 120.53 73.216ZM120.53 65.134C119.81 65.134 119.168 65.356 118.604 65.8C118.052 66.232 117.734 66.868 117.65 67.708H123.266C123.23 66.904 122.954 66.274 122.438 65.818C121.922 65.362 121.286 65.134 120.53 65.134ZM126.764 73V64.072H128.132L128.24 65.368C128.528 64.888 128.912 64.516 129.392 64.252C129.872 63.988 130.412 63.856 131.012 63.856C131.72 63.856 132.326 64 132.83 64.288C133.346 64.576 133.742 65.014 134.018 65.602C134.33 65.062 134.756 64.636 135.296 64.324C135.848 64.012 136.442 63.856 137.078 63.856C138.146 63.856 138.998 64.18 139.634 64.828C140.27 65.464 140.588 66.448 140.588 67.78V73H139.094V67.942C139.094 67.018 138.908 66.322 138.536 65.854C138.164 65.386 137.63 65.152 136.934 65.152C136.214 65.152 135.614 65.434 135.134 65.998C134.666 66.55 134.432 67.342 134.432 68.374V73H132.92V67.942C132.92 67.018 132.734 66.322 132.362 65.854C131.99 65.386 131.456 65.152 130.76 65.152C130.052 65.152 129.458 65.434 128.978 65.998C128.51 66.55 128.276 67.342 128.276 68.374V73H126.764ZM146.286 73.216C145.218 73.216 144.33 72.946 143.622 72.406C142.914 71.866 142.5 71.134 142.38 70.21H143.928C144.024 70.678 144.27 71.086 144.666 71.434C145.074 71.77 145.62 71.938 146.304 71.938C146.94 71.938 147.408 71.806 147.708 71.542C148.008 71.266 148.158 70.942 148.158 70.57C148.158 70.03 147.96 69.67 147.564 69.49C147.18 69.31 146.634 69.148 145.926 69.004C145.446 68.908 144.966 68.77 144.486 68.59C144.006 68.41 143.604 68.158 143.28 67.834C142.956 67.498 142.794 67.06 142.794 66.52C142.794 65.74 143.082 65.104 143.658 64.612C144.246 64.108 145.038 63.856 146.034 63.856C146.982 63.856 147.756 64.096 148.356 64.576C148.968 65.044 149.322 65.716 149.418 66.592H147.924C147.864 66.136 147.666 65.782 147.33 65.53C147.006 65.266 146.568 65.134 146.016 65.134C145.476 65.134 145.056 65.248 144.756 65.476C144.468 65.704 144.324 66.004 144.324 66.376C144.324 66.736 144.51 67.018 144.882 67.222C145.266 67.426 145.782 67.6 146.43 67.744C146.982 67.864 147.504 68.014 147.996 68.194C148.5 68.362 148.908 68.62 149.22 68.968C149.544 69.304 149.706 69.796 149.706 70.444C149.718 71.248 149.412 71.914 148.788 72.442C148.176 72.958 147.342 73.216 146.286 73.216Z" fill="black"/>
<path d="M94.1254 40.576C91.9814 40.576 90.0454 40.192 88.3174 39.424C86.5894 38.624 85.1974 37.44 84.1414 35.872C83.1174 34.304 82.5734 32.352 82.5094 30.016H86.5894C86.6214 31.936 87.2934 33.6 88.6054 35.008C89.9174 36.384 91.7574 37.072 94.1254 37.072C96.4934 37.072 98.2694 36.416 99.4534 35.104C100.669 33.792 101.277 32.208 101.277 30.352C101.277 28.784 100.893 27.504 100.125 26.512C99.3894 25.52 98.3814 24.784 97.1014 24.304C95.8534 23.824 94.4774 23.584 92.9734 23.584H90.4774V20.176H92.9734C95.1494 20.176 96.8454 19.68 98.0614 18.688C99.3094 17.696 99.9334 16.304 99.9334 14.512C99.9334 13.008 99.4374 11.776 98.4454 10.816C97.4854 9.824 96.0454 9.328 94.1254 9.328C92.2694 9.328 90.7814 9.888 89.6614 11.008C88.5414 12.096 87.9174 13.472 87.7894 15.136H83.7094C83.8054 13.312 84.2854 11.696 85.1494 10.288C86.0454 8.88 87.2614 7.792 88.7974 7.024C90.3334 6.224 92.1094 5.824 94.1254 5.824C96.3014 5.824 98.1094 6.208 99.5494 6.976C101.021 7.744 102.125 8.768 102.861 10.048C103.629 11.328 104.013 12.736 104.013 14.272C104.013 15.968 103.549 17.52 102.621 18.928C101.693 20.304 100.301 21.232 98.4454 21.712C100.429 22.128 102.077 23.072 103.389 24.544C104.701 26.016 105.357 27.952 105.357 30.352C105.357 32.208 104.925 33.92 104.061 35.488C103.229 37.024 101.981 38.256 100.317 39.184C98.6534 40.112 96.5894 40.576 94.1254 40.576ZM124.984 40.576C122.008 40.576 119.432 39.856 117.256 38.416C115.112 36.944 113.464 34.912 112.312 32.32C111.16 29.696 110.584 26.656 110.584 23.2C110.584 19.744 111.16 16.72 112.312 14.128C113.464 11.504 115.112 9.472 117.256 8.032C119.432 6.56 122.008 5.824 124.984 5.824C127.96 5.824 130.52 6.56 132.664 8.032C134.808 9.472 136.456 11.504 137.608 14.128C138.76 16.72 139.336 19.744 139.336 23.2C139.336 26.656 138.76 29.696 137.608 32.32C136.456 34.912 134.808 36.944 132.664 38.416C130.52 39.856 127.96 40.576 124.984 40.576ZM124.984 37.024C126.936 37.024 128.68 36.48 130.216 35.392C131.784 34.272 133 32.688 133.864 30.64C134.76 28.56 135.208 26.08 135.208 23.2C135.208 20.32 134.76 17.856 133.864 15.808C133 13.76 131.784 12.192 130.216 11.104C128.68 9.984 126.936 9.424 124.984 9.424C123 9.424 121.24 9.984 119.704 11.104C118.168 12.192 116.952 13.76 116.056 15.808C115.16 17.856 114.712 20.32 114.712 23.2C114.712 26.08 115.16 28.56 116.056 30.64C116.952 32.688 118.168 34.272 119.704 35.392C121.24 36.48 123 37.024 124.984 37.024ZM158.265 40.576C155.289 40.576 152.713 39.856 150.537 38.416C148.393 36.944 146.745 34.912 145.593 32.32C144.441 29.696 143.865 26.656 143.865 23.2C143.865 19.744 144.441 16.72 145.593 14.128C146.745 11.504 148.393 9.472 150.537 8.032C152.713 6.56 155.289 5.824 158.265 5.824C161.241 5.824 163.801 6.56 165.945 8.032C168.089 9.472 169.737 11.504 170.889 14.128C172.041 16.72 172.617 19.744 172.617 23.2C172.617 26.656 172.041 29.696 170.889 32.32C169.737 34.912 168.089 36.944 165.945 38.416C163.801 39.856 161.241 40.576 158.265 40.576ZM158.265 37.024C160.217 37.024 161.961 36.48 163.497 35.392C165.065 34.272 166.281 32.688 167.145 30.64C168.041 28.56 168.489 26.08 168.489 23.2C168.489 20.32 168.041 17.856 167.145 15.808C166.281 13.76 165.065 12.192 163.497 11.104C161.961 9.984 160.217 9.424 158.265 9.424C156.281 9.424 154.521 9.984 152.985 11.104C151.449 12.192 150.233 13.76 149.337 15.808C148.441 17.856 147.993 20.32 147.993 23.2C147.993 26.08 148.441 28.56 149.337 30.64C150.233 32.688 151.449 34.272 152.985 35.392C154.521 36.48 156.281 37.024 158.265 37.024Z" fill="black"/>
<circle cx="28" cy="41" r="28" fill="#F3FBF8"/>
<path d="M34.4722 35H35.9217C37.1292 35 38.1392 34.1395 38.3712 33H36.9217C35.7147 33 34.7047 33.8605 34.4722 35Z" fill="#09A66D"/>
<path d="M23 30.5C23.0495 30.5 23.0975 30.506 23.147 30.5075L23.498 26.9975C23.5 26.703 23.297 26.5 23.0475 26.5H22.953C22.703 26.5 22.5 26.703 22.5 26.9525L22.8535 30.5075C22.9025 30.506 22.9505 30.5 23 30.5Z" fill="#09A66D"/>
<path d="M19 41C19 40.8295 19.0175 40.663 19.045 40.5H18V40.8425C18.3745 41.021 18.713 41.262 19 41.555V41Z" fill="#09A66D"/>
<path d="M18.5951 28.7781L20.3056 31.2961C20.4396 31.2096 20.5781 31.1296 20.7206 31.0561L19.6921 28.2276C19.6846 28.2076 19.6771 28.1891 19.6676 28.1711C19.5971 28.0301 19.4851 27.9326 19.3456 27.8866C19.2061 27.8401 19.0576 27.8511 18.9271 27.9166L18.8021 27.9791C18.5316 28.1141 18.4216 28.4441 18.5571 28.7146C18.5681 28.7346 18.5811 28.7571 18.5951 28.7781Z" fill="#09A66D"/>
<path d="M20.691 39.5H26.26L26.916 36.352C26.9715 36.084 27 35.8095 27 35.536C27 33.2945 25.2055 31.5 23 31.5C20.7945 31.5 19 33.2945 19 35.5C19 35.8095 19.0285 36.084 19.084 36.352L19.662 39.125C20.212 38.44 21.055 38 22 38V39C21.4975 39 21.043 39.1925 20.691 39.5ZM24.5 33.5H25.5V34.5H24.5V33.5ZM24.5 35.5H25.5V36.5H24.5V35.5ZM24.5 37.5H25.5V38.5H24.5V37.5Z" fill="#09A66D"/>
<path d="M17.5002 43.5H18.9497C18.7172 42.3605 17.7077 41.5 16.5002 41.5H15.0507C15.2827 42.6395 16.2927 43.5 17.5002 43.5Z" fill="#09A66D"/>
<path d="M27.4055 28.7765C27.4185 28.7565 27.432 28.7345 27.443 28.712C27.5775 28.4435 27.4675 28.1135 27.197 27.9785L27.072 27.916C26.941 27.851 26.7935 27.8395 26.6535 27.886C26.5145 27.9325 26.402 28.03 26.3365 28.161C26.3225 28.189 26.3145 28.2075 26.3075 28.2265L25.279 31.055C25.4215 31.1285 25.56 31.2085 25.6945 31.295L27.4055 28.7765Z" fill="#09A66D"/>
<path d="M26.4921 49.5H40.5001V46.5H25.8261C26.2676 47.4285 26.4916 48.449 26.4921 49.5ZM38.5001 47.5H39.5001V48.5H38.5001V47.5Z" fill="#09A66D"/>
<path d="M25.2316 53.5H39.0001C39.8271 53.5 40.5001 52.827 40.5001 52V50.5H26.4281C26.2686 51.6015 25.8476 52.623 25.2316 53.5ZM38.5001 51.5H39.5001V52.5H38.5001V51.5Z" fill="#09A66D"/>
<path d="M20.071 40.5C20.029 40.661 20 40.8265 20 41V41.5H40.5H41H42.5V40.5H20.071Z" fill="#09A66D"/>
<path d="M20 43.9335C20.1005 43.909 20.201 43.8835 20.2925 43.844C21.8175 43.1915 23.5925 43.5835 24.7055 44.821C24.8995 45.0365 25.0735 45.2655 25.237 45.4995H40.5V42.4995H20V43.9335ZM38.5 43.5H39.5V44.5H38.5V43.5Z" fill="#09A66D"/>
<path d="M23.9625 45.4899C23.1485 44.5849 21.801 44.2854 20.686 44.7634C20.4715 44.8549 20.2395 44.9179 20 44.9564V45.8979C20.4965 45.7129 20.968 45.3234 21.147 45.1454L21.8535 45.8534C21.7365 45.9709 20.6735 46.9999 19.5 46.9999C18.3265 46.9999 17.2635 45.9709 17.1465 45.8534L17.853 45.1454C18.032 45.3229 18.5035 45.7124 19 45.8979V44.4999H17.5C17.3305 44.4999 17.1655 44.4839 17.0025 44.4604C16.3015 44.5104 15.5605 44.9024 15.0145 45.5154C14.038 46.6139 13.5 48.0284 13.5 49.4999C13.5 51.1464 14.154 52.6819 15.3405 53.8239C16.527 54.9654 18.08 55.5549 19.739 55.4954C22.8295 55.3759 25.3575 52.8619 25.4945 49.7724C25.564 48.1869 25.02 46.6659 23.9625 45.4899ZM19.5 54.4999C16.743 54.4999 14.5 52.2569 14.5 49.4999H15.5C15.5 51.7054 17.2945 53.4999 19.5 53.4999V54.4999Z" fill="#09A66D"/>
<path d="M38.3854 39.5C38.1464 38.571 37.6899 37.7115 37.0409 36.99C36.2264 36.085 34.8789 35.7865 33.7639 36.2635C33.6789 36.3 33.5899 36.3305 33.4999 36.359V32C33.4999 31.173 34.1729 30.5 34.9999 30.5H35.4999V29.5H34.9999C33.6214 29.5 32.4999 30.6215 32.4999 32V36.359C32.4099 36.3305 32.3209 36.3 32.2359 36.2635C31.1214 35.7865 29.7734 36.085 28.9589 36.99C28.3099 37.7115 27.8534 38.5705 27.6144 39.5H32.9999H38.3854ZM30.7534 37.069C30.7609 37.073 31.5179 37.5 32.9999 37.5C34.4819 37.5 35.2389 37.073 35.2464 37.069L35.7569 37.9285C35.7184 37.952 34.7844 38.5 32.9999 38.5C31.2154 38.5 30.2814 37.952 30.2424 37.9285L30.7534 37.069Z" fill="#09A66D"/>
</svg>
