<svg width="171" height="82" viewBox="0 0 171 82" fill="none" xmlns="http://www.w3.org/2000/svg">
<path d="M85.9993 73.216C85.1353 73.216 84.3493 73.048 83.6413 72.712C82.9453 72.364 82.3873 71.83 81.9673 71.11C81.5473 70.39 81.3373 69.472 81.3373 68.356V60.4H82.8493V68.374C82.8493 69.598 83.1433 70.486 83.7313 71.038C84.3193 71.59 85.0873 71.866 86.0353 71.866C86.9833 71.866 87.7453 71.59 88.3213 71.038C88.8973 70.486 89.1853 69.598 89.1853 68.374V60.4H90.6973V68.356C90.6973 69.472 90.4873 70.39 90.0673 71.11C89.6473 71.83 89.0833 72.364 88.3753 72.712C87.6673 73.048 86.8753 73.216 85.9993 73.216ZM96.5878 73.216C95.5198 73.216 94.6318 72.946 93.9238 72.406C93.2158 71.866 92.8018 71.134 92.6818 70.21H94.2298C94.3258 70.678 94.5718 71.086 94.9678 71.434C95.3758 71.77 95.9218 71.938 96.6058 71.938C97.2418 71.938 97.7098 71.806 98.0098 71.542C98.3098 71.266 98.4598 70.942 98.4598 70.57C98.4598 70.03 98.2618 69.67 97.8658 69.49C97.4818 69.31 96.9358 69.148 96.2278 69.004C95.7478 68.908 95.2678 68.77 94.7878 68.59C94.3078 68.41 93.9058 68.158 93.5818 67.834C93.2578 67.498 93.0958 67.06 93.0958 66.52C93.0958 65.74 93.3838 65.104 93.9598 64.612C94.5478 64.108 95.3398 63.856 96.3358 63.856C97.2838 63.856 98.0578 64.096 98.6578 64.576C99.2698 65.044 99.6238 65.716 99.7198 66.592H98.2258C98.1658 66.136 97.9678 65.782 97.6318 65.53C97.3078 65.266 96.8698 65.134 96.3178 65.134C95.7778 65.134 95.3578 65.248 95.0578 65.476C94.7698 65.704 94.6258 66.004 94.6258 66.376C94.6258 66.736 94.8118 67.018 95.1838 67.222C95.5678 67.426 96.0838 67.6 96.7318 67.744C97.2838 67.864 97.8058 68.014 98.2978 68.194C98.8018 68.362 99.2098 68.62 99.5218 68.968C99.8458 69.304 100.008 69.796 100.008 70.444C100.02 71.248 99.7138 71.914 99.0898 72.442C98.4778 72.958 97.6438 73.216 96.5878 73.216ZM106.182 73.216C105.33 73.216 104.574 73.024 103.914 72.64C103.254 72.244 102.732 71.698 102.348 71.002C101.976 70.306 101.79 69.484 101.79 68.536C101.79 67.6 101.976 66.784 102.348 66.088C102.72 65.38 103.236 64.834 103.896 64.45C104.568 64.054 105.342 63.856 106.218 63.856C107.082 63.856 107.826 64.054 108.45 64.45C109.086 64.834 109.572 65.344 109.908 65.98C110.244 66.616 110.412 67.3 110.412 68.032C110.412 68.164 110.406 68.296 110.394 68.428C110.394 68.56 110.394 68.71 110.394 68.878H103.284C103.32 69.562 103.476 70.132 103.752 70.588C104.04 71.032 104.394 71.368 104.814 71.596C105.246 71.824 105.702 71.938 106.182 71.938C106.806 71.938 107.328 71.794 107.748 71.506C108.168 71.218 108.474 70.828 108.666 70.336H110.16C109.92 71.164 109.458 71.854 108.774 72.406C108.102 72.946 107.238 73.216 106.182 73.216ZM106.182 65.134C105.462 65.134 104.82 65.356 104.256 65.8C103.704 66.232 103.386 66.868 103.302 67.708H108.918C108.882 66.904 108.606 66.274 108.09 65.818C107.574 65.362 106.938 65.134 106.182 65.134ZM112.416 73V64.072H113.784L113.91 65.782C114.186 65.194 114.606 64.726 115.17 64.378C115.734 64.03 116.43 63.856 117.258 63.856V65.44H116.844C116.316 65.44 115.83 65.536 115.386 65.728C114.942 65.908 114.588 66.22 114.324 66.664C114.06 67.108 113.928 67.72 113.928 68.5V73H112.416ZM129.533 73.216C128.297 73.216 127.211 72.946 126.275 72.406C125.351 71.854 124.625 71.086 124.097 70.102C123.581 69.118 123.323 67.984 123.323 66.7C123.323 65.416 123.581 64.288 124.097 63.316C124.625 62.332 125.351 61.564 126.275 61.012C127.211 60.46 128.297 60.184 129.533 60.184C130.781 60.184 131.867 60.46 132.791 61.012C133.727 61.564 134.453 62.332 134.969 63.316C135.485 64.288 135.743 65.416 135.743 66.7C135.743 67.984 135.485 69.118 134.969 70.102C134.453 71.086 133.727 71.854 132.791 72.406C131.867 72.946 130.781 73.216 129.533 73.216ZM129.533 71.884C130.457 71.884 131.267 71.68 131.963 71.272C132.671 70.852 133.217 70.258 133.601 69.49C133.997 68.71 134.195 67.78 134.195 66.7C134.195 65.62 133.997 64.696 133.601 63.928C133.217 63.16 132.671 62.572 131.963 62.164C131.267 61.744 130.457 61.534 129.533 61.534C128.609 61.534 127.793 61.744 127.085 62.164C126.389 62.572 125.843 63.16 125.447 63.928C125.063 64.696 124.871 65.62 124.871 66.7C124.871 67.78 125.063 68.71 125.447 69.49C125.843 70.258 126.389 70.852 127.085 71.272C127.793 71.68 128.609 71.884 129.533 71.884ZM137.834 73V64.072H139.202L139.328 65.782C139.604 65.194 140.024 64.726 140.588 64.378C141.152 64.03 141.848 63.856 142.676 63.856V65.44H142.262C141.734 65.44 141.248 65.536 140.804 65.728C140.36 65.908 140.006 66.22 139.742 66.664C139.478 67.108 139.346 67.72 139.346 68.5V73H137.834ZM148.089 73.216C147.201 73.216 146.421 73.012 145.749 72.604C145.089 72.196 144.573 71.638 144.201 70.93C143.841 70.222 143.661 69.418 143.661 68.518C143.661 67.618 143.847 66.82 144.219 66.124C144.591 65.416 145.107 64.864 145.767 64.468C146.427 64.06 147.207 63.856 148.107 63.856C148.839 63.856 149.487 64.006 150.051 64.306C150.615 64.606 151.053 65.026 151.365 65.566V60.04H152.877V73H151.509L151.365 71.524C151.077 71.956 150.663 72.346 150.123 72.694C149.583 73.042 148.905 73.216 148.089 73.216ZM148.251 71.902C148.851 71.902 149.379 71.764 149.835 71.488C150.303 71.2 150.663 70.804 150.915 70.3C151.179 69.796 151.311 69.208 151.311 68.536C151.311 67.864 151.179 67.276 150.915 66.772C150.663 66.268 150.303 65.878 149.835 65.602C149.379 65.314 148.851 65.17 148.251 65.17C147.663 65.17 147.135 65.314 146.667 65.602C146.211 65.878 145.851 66.268 145.587 66.772C145.335 67.276 145.209 67.864 145.209 68.536C145.209 69.208 145.335 69.796 145.587 70.3C145.851 70.804 146.211 71.2 146.667 71.488C147.135 71.764 147.663 71.902 148.251 71.902ZM159.356 73.216C158.504 73.216 157.748 73.024 157.088 72.64C156.428 72.244 155.906 71.698 155.522 71.002C155.15 70.306 154.964 69.484 154.964 68.536C154.964 67.6 155.15 66.784 155.522 66.088C155.894 65.38 156.41 64.834 157.07 64.45C157.742 64.054 158.516 63.856 159.392 63.856C160.256 63.856 161 64.054 161.624 64.45C162.26 64.834 162.746 65.344 163.082 65.98C163.418 66.616 163.586 67.3 163.586 68.032C163.586 68.164 163.58 68.296 163.568 68.428C163.568 68.56 163.568 68.71 163.568 68.878H156.458C156.494 69.562 156.65 70.132 156.926 70.588C157.214 71.032 157.568 71.368 157.988 71.596C158.42 71.824 158.876 71.938 159.356 71.938C159.98 71.938 160.502 71.794 160.922 71.506C161.342 71.218 161.648 70.828 161.84 70.336H163.334C163.094 71.164 162.632 71.854 161.948 72.406C161.276 72.946 160.412 73.216 159.356 73.216ZM159.356 65.134C158.636 65.134 157.994 65.356 157.43 65.8C156.878 66.232 156.56 66.868 156.476 67.708H162.092C162.056 66.904 161.78 66.274 161.264 65.818C160.748 65.362 160.112 65.134 159.356 65.134ZM165.59 73V64.072H166.958L167.084 65.782C167.36 65.194 167.78 64.726 168.344 64.378C168.908 64.03 169.604 63.856 170.432 63.856V65.44H170.018C169.49 65.44 169.004 65.536 168.56 65.728C168.116 65.908 167.762 66.22 167.498 66.664C167.234 67.108 167.102 67.72 167.102 68.5V73H165.59Z" fill="black"/>
<path d="M94.7973 40.576C92.6533 40.576 90.7173 40.192 88.9893 39.424C87.2613 38.624 85.8693 37.44 84.8133 35.872C83.7893 34.304 83.2453 32.352 83.1813 30.016H87.2613C87.2933 31.936 87.9653 33.6 89.2773 35.008C90.5893 36.384 92.4293 37.072 94.7973 37.072C97.1653 37.072 98.9413 36.416 100.125 35.104C101.341 33.792 101.949 32.208 101.949 30.352C101.949 28.784 101.565 27.504 100.797 26.512C100.061 25.52 99.0533 24.784 97.7733 24.304C96.5253 23.824 95.1493 23.584 93.6453 23.584H91.1493V20.176H93.6453C95.8213 20.176 97.5173 19.68 98.7333 18.688C99.9813 17.696 100.605 16.304 100.605 14.512C100.605 13.008 100.109 11.776 99.1173 10.816C98.1573 9.824 96.7173 9.328 94.7973 9.328C92.9413 9.328 91.4533 9.888 90.3333 11.008C89.2133 12.096 88.5893 13.472 88.4613 15.136H84.3813C84.4773 13.312 84.9573 11.696 85.8213 10.288C86.7173 8.88 87.9333 7.792 89.4693 7.024C91.0053 6.224 92.7813 5.824 94.7973 5.824C96.9733 5.824 98.7813 6.208 100.221 6.976C101.693 7.744 102.797 8.768 103.533 10.048C104.301 11.328 104.685 12.736 104.685 14.272C104.685 15.968 104.221 17.52 103.293 18.928C102.365 20.304 100.973 21.232 99.1173 21.712C101.101 22.128 102.749 23.072 104.061 24.544C105.373 26.016 106.029 27.952 106.029 30.352C106.029 32.208 105.597 33.92 104.733 35.488C103.901 37.024 102.653 38.256 100.989 39.184C99.3253 40.112 97.2613 40.576 94.7973 40.576ZM125.656 40.576C122.68 40.576 120.104 39.856 117.928 38.416C115.784 36.944 114.136 34.912 112.984 32.32C111.832 29.696 111.256 26.656 111.256 23.2C111.256 19.744 111.832 16.72 112.984 14.128C114.136 11.504 115.784 9.472 117.928 8.032C120.104 6.56 122.68 5.824 125.656 5.824C128.632 5.824 131.192 6.56 133.336 8.032C135.48 9.472 137.128 11.504 138.28 14.128C139.432 16.72 140.008 19.744 140.008 23.2C140.008 26.656 139.432 29.696 138.28 32.32C137.128 34.912 135.48 36.944 133.336 38.416C131.192 39.856 128.632 40.576 125.656 40.576ZM125.656 37.024C127.608 37.024 129.352 36.48 130.888 35.392C132.456 34.272 133.672 32.688 134.536 30.64C135.432 28.56 135.88 26.08 135.88 23.2C135.88 20.32 135.432 17.856 134.536 15.808C133.672 13.76 132.456 12.192 130.888 11.104C129.352 9.984 127.608 9.424 125.656 9.424C123.672 9.424 121.912 9.984 120.376 11.104C118.84 12.192 117.624 13.76 116.728 15.808C115.832 17.856 115.384 20.32 115.384 23.2C115.384 26.08 115.832 28.56 116.728 30.64C117.624 32.688 118.84 34.272 120.376 35.392C121.912 36.48 123.672 37.024 125.656 37.024ZM145.833 40V6.4H149.865V21.616L163.881 6.4H168.969L156.489 19.792L169.161 40H164.265L153.609 22.912L149.865 26.896V40H145.833Z" fill="black"/>
<circle cx="28" cy="41" r="28" fill="#F3FBF8"/>
<g clip-path="url(#clip0_32_162)">
<path d="M28.0023 25C23.4308 25 19.6939 28.7369 19.6939 33.3084C19.6939 37.8799 23.4308 41.6168 28.0023 41.6168C32.5737 41.6168 36.3107 37.8799 36.3107 33.3084C36.3107 28.7369 32.5737 25 28.0023 25Z" fill="#09A66D"/>
<path d="M42.2607 48.2563C42.043 47.7121 41.7528 47.2041 41.4263 46.7325C39.7573 44.2653 37.1814 42.6327 34.2789 42.2336C33.9161 42.1973 33.517 42.2698 33.2268 42.4875C31.7029 43.6123 29.8889 44.1927 28.0023 44.1927C26.1156 44.1927 24.3016 43.6123 22.7777 42.4875C22.4875 42.2698 22.0884 42.161 21.7256 42.2336C18.8231 42.6327 16.2109 44.2653 14.5782 46.7325C14.2517 47.2041 13.9614 47.7484 13.7438 48.2563C13.635 48.474 13.6712 48.728 13.78 48.9457C14.0703 49.4536 14.4331 49.9616 14.7596 50.3969C15.2675 51.0863 15.8118 51.703 16.4286 52.2835C16.9365 52.7914 17.517 53.2631 18.0975 53.7348C20.9637 55.8754 24.4105 57 27.966 57C31.5216 57 34.9683 55.8753 37.8345 53.7348C38.415 53.2994 38.9954 52.7914 39.5034 52.2835C40.0839 51.703 40.6644 51.0862 41.1724 50.3969C41.5352 49.9252 41.8618 49.4536 42.152 48.9457C42.3333 48.728 42.3695 48.4739 42.2607 48.2563Z" fill="#09A66D"/>
</g>
<defs>
<clipPath id="clip0_32_162">
<rect width="32" height="32" fill="white" transform="translate(12 25)"/>
</clipPath>
</defs>
</svg>
